<?xml version="1.0" encoding="utf-8"?>
<!-- Generator: Adobe Illustrator 15.0.2, SVG Export Plug-In . SVG Version: 6.00 Build 0)  -->
<!DOCTYPE svg PUBLIC "-//W3C//DTD SVG 1.1//EN" "http://www.w3.org/Graphics/SVG/1.1/DTD/svg11.dtd">
<svg version="1.1" id="Ebene_1" xmlns="http://www.w3.org/2000/svg" xmlns:xlink="http://www.w3.org/1999/xlink" x="0px" y="0px"
	 width="141.732px" height="101.667px" viewBox="0 0 141.732 101.667" style="enable-background:new 0 0 141.732 101.667;"
	 xml:space="preserve">
<style type="text/css">
<![CDATA[
	.st0{fill:#AAA097;}
	.st1{fill:#C3004A;}
]]>
</style>
<g>
	<g>
		<path class="st0" d="M2.363,93.82h0.729v4.158c0,0.306,0.027,0.702,0.108,0.891c0.117,0.271,0.45,0.604,1.206,0.604
			c0.513,0,0.899-0.136,1.089-0.388c0.207-0.278,0.233-0.549,0.233-0.963V93.82h0.729v4.392c0,0.747-0.099,1.099-0.468,1.413
			c-0.378,0.324-0.873,0.478-1.62,0.478c-0.954,0-1.494-0.279-1.827-0.892c-0.162-0.297-0.18-0.692-0.18-0.963V93.82z"/>
		<path class="st0" d="M7.71,95.592l0.684-0.188c0,0,0.162,0.333,0.162,0.702c0.468-0.468,0.937-0.693,1.413-0.693
			c0.486,0,0.918,0.261,1.099,0.657c0.071,0.162,0.107,0.342,0.107,0.521v3.402h-0.711V96.96c0-0.477-0.036-0.594-0.162-0.747
			c-0.099-0.116-0.288-0.188-0.495-0.188c-0.359,0-0.918,0.288-1.242,0.63v3.339H7.881v-3.456C7.881,95.899,7.71,95.592,7.71,95.592
			z"/>
		<path class="st0" d="M12.383,95.53l0.729-0.117v4.581h-0.729V95.53z M12.761,93.577c0.307,0,0.549,0.243,0.549,0.549
			c0,0.307-0.242,0.549-0.549,0.549c-0.306,0-0.549-0.242-0.549-0.54C12.212,93.829,12.455,93.577,12.761,93.577z"/>
		<path class="st0" d="M13.947,95.547l0.72-0.152l1.044,3.087c0.126,0.369,0.216,0.765,0.216,0.765h0.019
			c0,0,0.071-0.351,0.216-0.756l1.025-2.979h0.747l-1.683,4.526h-0.693L13.947,95.547z"/>
		<path class="st0" d="M20.297,95.944c0.342,0,0.656,0.153,0.81,0.396c0.135,0.217,0.198,0.514,0.207,0.999h-2.052
			C19.297,96.412,19.658,95.944,20.297,95.944z M20.584,99.507c-0.449,0-0.863-0.161-1.115-0.549
			c-0.152-0.233-0.207-0.558-0.207-0.98V97.87h2.799v-0.099c0-1.071-0.126-1.494-0.514-1.891c-0.306-0.314-0.729-0.485-1.215-0.485
			c-0.539,0-0.98,0.197-1.34,0.621c-0.379,0.449-0.541,0.936-0.541,1.691c0,1.485,0.748,2.385,1.99,2.385
			c0.575,0,1.115-0.197,1.511-0.558l-0.27-0.45C21.367,99.373,21.017,99.507,20.584,99.507z"/>
		<path class="st0" d="M23.06,95.583l0.701-0.188c0,0,0.172,0.351,0.145,0.729c0.324-0.459,0.801-0.747,1.26-0.747
			c0.117,0,0.243,0.045,0.243,0.045l-0.288,0.766c-0.045-0.019-0.126-0.036-0.198-0.036c-0.27,0-0.54,0.117-0.747,0.324
			s-0.261,0.342-0.261,0.711v2.808h-0.702v-3.456C23.212,95.88,23.06,95.583,23.06,95.583z"/>
		<path class="st0" d="M28.811,95.701l-0.262,0.522c-0.396-0.189-0.729-0.324-1.125-0.324c-0.513,0-0.846,0.297-0.846,0.738
			c0,0.342,0.171,0.549,0.648,0.647l0.594,0.126c0.81,0.171,1.197,0.585,1.197,1.251c0,0.873-0.685,1.467-1.692,1.467
			c-0.567,0-1.188-0.171-1.647-0.449l0.271-0.522c0.459,0.279,0.927,0.423,1.422,0.423c0.549,0,0.909-0.297,0.909-0.773
			c0-0.405-0.226-0.631-0.738-0.738l-0.558-0.117c-0.738-0.153-1.134-0.612-1.134-1.233c0-0.81,0.656-1.377,1.593-1.377
			C27.91,95.34,28.433,95.485,28.811,95.701z"/>
		<path class="st0" d="M30.052,95.53l0.729-0.117v4.581h-0.729V95.53z M30.43,93.577c0.307,0,0.55,0.243,0.55,0.549
			c0,0.307-0.243,0.549-0.55,0.549c-0.306,0-0.549-0.242-0.549-0.54C29.881,93.829,30.124,93.577,30.43,93.577z"/>
		<path class="st0" d="M34.244,95.512l-0.217,0.53h-0.936v2.89c0,0.495,0.135,0.666,0.576,0.666c0.197,0,0.314-0.027,0.44-0.091
			l0.1,0.45c-0.226,0.117-0.478,0.181-0.792,0.181c-0.234,0-0.414-0.046-0.585-0.126c-0.315-0.153-0.433-0.441-0.433-0.892v-3.078
			h-0.585v-0.53h0.585c0-0.433,0.072-1.135,0.072-1.135l0.738-0.162c0,0-0.09,0.702-0.09,1.297H34.244z"/>
		<path class="st0" d="M37.288,98.887c-0.207,0.423-0.631,0.701-1.09,0.701c-0.513,0-0.773-0.288-0.773-0.818
			c0-0.685,0.405-1.071,1.539-1.071c0.126,0,0.233,0.009,0.351,0.018L37.288,98.887z M35.173,94.405
			c0,0.261,0.207,0.477,0.468,0.477s0.459-0.216,0.459-0.477c0-0.252-0.207-0.459-0.468-0.459
			C35.38,93.946,35.173,94.153,35.173,94.405z M37.026,94.405c0,0.261,0.216,0.477,0.478,0.477c0.252,0,0.459-0.216,0.459-0.477
			c0-0.252-0.216-0.459-0.468-0.459C37.233,93.946,37.026,94.153,37.026,94.405z M35.154,96.501c0.289-0.261,0.928-0.53,1.432-0.53
			c0.278,0,0.459,0.08,0.603,0.242c0.126,0.145,0.145,0.307,0.145,0.702v0.315c0,0-0.126-0.009-0.315-0.009
			c-1.503,0-2.376,0.594-2.376,1.61c0,0.604,0.333,1.278,1.44,1.278c0.513,0,0.863-0.171,1.296-0.604
			c0.081,0.315,0.306,0.559,0.611,0.657l0.36-0.504c-0.333-0.18-0.378-0.369-0.36-1.098l0.036-1.477
			c0.009-0.404,0-0.747-0.099-0.989c-0.189-0.459-0.621-0.702-1.242-0.702c-0.647,0-1.287,0.207-1.881,0.603L35.154,96.501z"/>
		<path class="st0" d="M41.328,95.512l-0.216,0.53h-0.936v2.89c0,0.495,0.135,0.666,0.576,0.666c0.197,0,0.314-0.027,0.44-0.091
			l0.1,0.45c-0.226,0.117-0.478,0.181-0.792,0.181c-0.234,0-0.414-0.046-0.586-0.126c-0.314-0.153-0.432-0.441-0.432-0.892v-3.078
			h-0.585v-0.53h0.585c0-0.433,0.072-1.135,0.072-1.135l0.738-0.162c0,0-0.091,0.702-0.091,1.297H41.328z"/>
		<path class="st0" d="M46.765,98.851c0,0-0.081,0.188-0.271,0.323c-0.288,0.207-0.495,0.288-0.864,0.288
			c-0.413,0-0.692-0.152-0.899-0.521c-0.145-0.261-0.18-0.648-0.18-1.17c0-0.63,0.071-0.954,0.287-1.296
			c0.189-0.307,0.486-0.469,0.838-0.469c0.53,0,0.863,0.153,1.089,0.469V98.851z M46.773,93.423v1.882
			c0,0.323,0.009,0.692,0.009,0.692c-0.27-0.359-0.711-0.566-1.215-0.566c-0.324,0-0.576,0.081-0.864,0.278
			c-0.611,0.423-0.927,1.125-0.927,2.079c0,1.432,0.666,2.269,1.827,2.269c0.521,0,0.864-0.153,1.188-0.522
			c0.01,0.234,0.1,0.459,0.1,0.459h0.72c-0.099-0.261-0.135-0.675-0.135-1.449v-5.004L46.773,93.423z"/>
		<path class="st0" d="M50.418,95.944c0.342,0,0.656,0.153,0.81,0.396c0.135,0.217,0.198,0.514,0.207,0.999h-2.052
			C49.419,96.412,49.779,95.944,50.418,95.944z M50.706,99.507c-0.45,0-0.864-0.161-1.116-0.549
			c-0.152-0.233-0.207-0.558-0.207-0.98V97.87h2.799v-0.099c0-1.071-0.126-1.494-0.513-1.891c-0.307-0.314-0.729-0.485-1.215-0.485
			c-0.54,0-0.981,0.197-1.341,0.621c-0.378,0.449-0.54,0.936-0.54,1.691c0,1.485,0.747,2.385,1.989,2.385
			c0.576,0,1.115-0.197,1.511-0.558l-0.27-0.45C51.488,99.373,51.139,99.507,50.706,99.507z"/>
		<path class="st0" d="M53.181,95.583l0.702-0.188c0,0,0.171,0.351,0.144,0.729c0.324-0.459,0.801-0.747,1.26-0.747
			c0.117,0,0.243,0.045,0.243,0.045l-0.288,0.766c-0.045-0.019-0.126-0.036-0.197-0.036c-0.271,0-0.54,0.117-0.747,0.324
			s-0.262,0.342-0.262,0.711v2.808h-0.701v-3.456C53.334,95.88,53.181,95.583,53.181,95.583z"/>
		<path class="st0" d="M59.786,94.441c0.315,0,0.504,0.009,0.676,0.054c0.423,0.108,0.701,0.486,0.701,0.972
			c0,0.172-0.036,0.333-0.099,0.478c-0.18,0.414-0.414,0.531-1.08,0.531h-1.071v-2.034H59.786z M58.202,99.994h1.594
			c0.918,0,1.151-0.054,1.484-0.18c0.604-0.234,0.963-0.837,0.963-1.513c0-0.449-0.152-0.953-0.558-1.26
			c-0.207-0.162-0.432-0.252-0.811-0.324c0.702-0.225,1.107-0.711,1.107-1.35c0-0.63-0.423-1.197-1.053-1.413
			c-0.315-0.107-0.612-0.135-1.836-0.135h-0.892V99.994z M60.002,97.086c0.307,0,0.55,0.027,0.721,0.063
			c0.44,0.09,0.747,0.549,0.747,1.089c0,0.738-0.333,1.152-1.242,1.152h-1.314v-2.305H60.002z"/>
		<path class="st0" d="M63.227,95.547l0.693-0.135v3.222c0,0.424,0.063,0.612,0.27,0.757c0.145,0.099,0.351,0.152,0.549,0.152
			c0.441,0,0.9-0.323,1.143-0.81v-3.177l0.693-0.117v3.267c0,0.567,0.081,0.792,0.306,0.999l-0.449,0.478
			c-0.298-0.243-0.423-0.424-0.486-0.721c-0.342,0.459-0.81,0.685-1.422,0.685c-0.567,0-0.99-0.243-1.179-0.64
			c-0.081-0.171-0.117-0.404-0.117-0.666V95.547z"/>
		<path class="st0" d="M67.889,95.592l0.684-0.188c0,0,0.162,0.333,0.162,0.702c0.468-0.468,0.936-0.693,1.413-0.693
			c0.485,0,0.918,0.261,1.098,0.657c0.072,0.162,0.108,0.342,0.108,0.521v3.402h-0.711V96.96c0-0.477-0.036-0.594-0.162-0.747
			c-0.1-0.116-0.288-0.188-0.495-0.188c-0.36,0-0.918,0.288-1.242,0.63v3.339H68.06v-3.456
			C68.06,95.899,67.889,95.592,67.889,95.592z"/>
		<path class="st0" d="M75.377,98.851c0,0-0.081,0.188-0.271,0.323c-0.288,0.207-0.494,0.288-0.863,0.288
			c-0.414,0-0.693-0.152-0.9-0.521c-0.144-0.261-0.18-0.648-0.18-1.17c0-0.63,0.071-0.954,0.288-1.296
			c0.188-0.307,0.485-0.469,0.837-0.469c0.53,0,0.863,0.153,1.089,0.469V98.851z M75.386,93.423v1.882
			c0,0.323,0.009,0.692,0.009,0.692c-0.27-0.359-0.711-0.566-1.215-0.566c-0.324,0-0.576,0.081-0.864,0.278
			c-0.611,0.423-0.927,1.125-0.927,2.079c0,1.432,0.666,2.269,1.827,2.269c0.522,0,0.864-0.153,1.188-0.522
			c0.009,0.234,0.099,0.459,0.099,0.459h0.72c-0.099-0.261-0.135-0.675-0.135-1.449v-5.004L75.386,93.423z"/>
		<path class="st0" d="M79.03,95.944c0.342,0,0.656,0.153,0.81,0.396c0.135,0.217,0.198,0.514,0.207,0.999h-2.051
			C78.032,96.412,78.391,95.944,79.03,95.944z M79.317,99.507c-0.449,0-0.863-0.161-1.114-0.549
			c-0.153-0.233-0.207-0.558-0.207-0.98V97.87h2.798v-0.099c0-1.071-0.126-1.494-0.513-1.891c-0.307-0.314-0.729-0.485-1.216-0.485
			c-0.54,0-0.979,0.197-1.34,0.621c-0.378,0.449-0.54,0.936-0.54,1.691c0,1.485,0.747,2.385,1.988,2.385
			c0.576,0,1.116-0.197,1.512-0.558l-0.27-0.45C80.101,99.373,79.75,99.507,79.317,99.507z"/>
		<path class="st0" d="M84.796,95.701l-0.261,0.522c-0.396-0.189-0.729-0.324-1.125-0.324c-0.513,0-0.846,0.297-0.846,0.738
			c0,0.342,0.171,0.549,0.647,0.647l0.595,0.126c0.81,0.171,1.196,0.585,1.196,1.251c0,0.873-0.684,1.467-1.691,1.467
			c-0.567,0-1.188-0.171-1.647-0.449l0.271-0.522c0.459,0.279,0.927,0.423,1.422,0.423c0.549,0,0.909-0.297,0.909-0.773
			c0-0.405-0.226-0.631-0.738-0.738l-0.558-0.117c-0.738-0.153-1.135-0.612-1.135-1.233c0-0.81,0.657-1.377,1.594-1.377
			C83.896,95.34,84.418,95.485,84.796,95.701z"/>
		<path class="st0" d="M85.489,95.547l0.702-0.152l0.72,2.961c0.099,0.414,0.162,0.747,0.162,0.747h0.027
			c0,0,0.063-0.324,0.152-0.648l0.802-2.942h0.765l0.783,2.979c0.063,0.243,0.18,0.657,0.18,0.657H89.8c0,0,0.091-0.441,0.136-0.621
			l0.711-3.015h0.737l-1.269,4.518h-0.693l-0.891-3.15c-0.081-0.297-0.126-0.495-0.126-0.495h-0.018c0,0-0.055,0.315-0.1,0.459
			l-0.899,3.187h-0.657L85.489,95.547z"/>
		<path class="st0" d="M93.679,95.944c0.342,0,0.656,0.153,0.81,0.396c0.135,0.217,0.197,0.514,0.207,0.999h-2.052
			C92.68,96.412,93.039,95.944,93.679,95.944z M93.966,99.507c-0.449,0-0.863-0.161-1.115-0.549
			c-0.153-0.233-0.207-0.558-0.207-0.98V97.87h2.798v-0.099c0-1.071-0.125-1.494-0.512-1.891c-0.307-0.314-0.729-0.485-1.216-0.485
			c-0.54,0-0.98,0.197-1.341,0.621c-0.378,0.449-0.54,0.936-0.54,1.691c0,1.485,0.747,2.385,1.989,2.385
			c0.576,0,1.115-0.197,1.512-0.558l-0.27-0.45C94.748,99.373,94.398,99.507,93.966,99.507z"/>
		<path class="st0" d="M96.477,93.549l0.701-0.135c0,0,0.117,0.378,0.117,1.063v1.044c0,0.288-0.026,0.611-0.026,0.611
			c0.404-0.378,0.918-0.711,1.493-0.711c0.54,0,1.026,0.297,1.152,0.711c0.054,0.181,0.072,0.324,0.072,0.648v3.213h-0.693v-3.096
			c0-0.333-0.045-0.54-0.171-0.666c-0.107-0.108-0.297-0.181-0.521-0.181c-0.433,0-0.918,0.279-1.306,0.757v3.186h-0.701v-5.526
			C96.594,93.882,96.477,93.549,96.477,93.549z"/>
		<path class="st0" d="M101.174,95.583l0.702-0.188c0,0,0.171,0.351,0.145,0.729c0.323-0.459,0.801-0.747,1.26-0.747
			c0.117,0,0.243,0.045,0.243,0.045l-0.288,0.766c-0.045-0.019-0.126-0.036-0.198-0.036c-0.271,0-0.54,0.117-0.747,0.324
			s-0.261,0.342-0.261,0.711v2.808h-0.702v-3.456C101.327,95.88,101.174,95.583,101.174,95.583z"/>
		<path class="st0" d="M106.196,93.82h0.72v2.583h2.601V93.82h0.738v6.174h-0.738v-2.988h-2.601v2.988h-0.72V93.82z"/>
		<path class="st0" d="M114.044,98.887c-0.207,0.423-0.63,0.701-1.089,0.701c-0.513,0-0.774-0.288-0.774-0.818
			c0-0.685,0.405-1.071,1.539-1.071c0.126,0,0.234,0.009,0.352,0.018L114.044,98.887z M111.911,96.501
			c0.288-0.261,0.927-0.53,1.431-0.53c0.279,0,0.459,0.08,0.604,0.242c0.126,0.145,0.144,0.307,0.144,0.702v0.315
			c0,0-0.126-0.009-0.315-0.009c-1.503,0-2.376,0.594-2.376,1.61c0,0.604,0.333,1.278,1.44,1.278c0.513,0,0.864-0.171,1.296-0.604
			c0.081,0.315,0.306,0.559,0.612,0.657l0.359-0.504c-0.333-0.18-0.378-0.369-0.359-1.098l0.036-1.477
			c0.009-0.404,0-0.747-0.1-0.989c-0.188-0.459-0.621-0.702-1.242-0.702c-0.647,0-1.286,0.207-1.881,0.603L111.911,96.501z"/>
		<path class="st0" d="M116.006,95.566l0.684-0.162c0,0,0.162,0.351,0.162,0.666c0.297-0.333,0.847-0.675,1.306-0.675
			c0.44,0,0.882,0.27,1.044,0.747c0.432-0.459,0.98-0.747,1.439-0.747c0.666,0,1.125,0.504,1.125,1.215v3.384h-0.72v-3.312
			c0-0.433-0.198-0.657-0.576-0.657c-0.405,0-0.72,0.261-1.188,0.692v3.276h-0.711v-3.186c0-0.271-0.027-0.45-0.127-0.576
			c-0.107-0.126-0.252-0.181-0.459-0.181c-0.342,0-0.675,0.172-1.143,0.595v3.348h-0.675V96.52
			C116.168,95.872,116.006,95.566,116.006,95.566z"/>
		<path class="st0" d="M123.817,96.637c0.243-0.333,0.685-0.586,1.124-0.586c0.352,0,0.676,0.145,0.848,0.388
			c0.188,0.261,0.26,0.611,0.26,1.206c0,0.756-0.152,1.196-0.314,1.439c-0.162,0.234-0.504,0.396-0.81,0.396
			c-0.423,0-0.873-0.234-1.107-0.54V96.637z M123.125,94.467v4.41c0,0.604-0.036,0.9-0.135,1.116h0.701
			c0.091-0.18,0.108-0.297,0.126-0.486c0.252,0.333,0.766,0.595,1.233,0.595c1.07,0,1.781-0.973,1.781-2.412
			c0-1.404-0.666-2.277-1.736-2.277c-0.477,0-0.846,0.171-1.287,0.604c0,0,0.019-0.271,0.019-0.495v-1.044
			c0-0.685-0.117-1.063-0.117-1.063l-0.702,0.135C123.008,93.549,123.125,93.882,123.125,94.467z"/>
		<path class="st0" d="M127.885,95.547l0.693-0.135v3.222c0,0.424,0.063,0.612,0.27,0.757c0.145,0.099,0.352,0.152,0.549,0.152
			c0.441,0,0.9-0.323,1.144-0.81v-3.177l0.692-0.117v3.267c0,0.567,0.081,0.792,0.307,0.999l-0.45,0.478
			c-0.297-0.243-0.423-0.424-0.486-0.721c-0.342,0.459-0.81,0.685-1.422,0.685c-0.566,0-0.99-0.243-1.179-0.64
			c-0.081-0.171-0.117-0.404-0.117-0.666V95.547z"/>
		<path class="st0" d="M132.564,95.583l0.702-0.188c0,0,0.171,0.351,0.145,0.729c0.323-0.459,0.801-0.747,1.26-0.747
			c0.117,0,0.243,0.045,0.243,0.045l-0.288,0.766c-0.045-0.019-0.126-0.036-0.198-0.036c-0.27,0-0.54,0.117-0.747,0.324
			s-0.261,0.342-0.261,0.711v2.808h-0.702v-3.456C132.718,95.88,132.564,95.583,132.564,95.583z"/>
		<path class="st0" d="M137.756,96.898c0,0.603-0.27,0.899-0.81,0.899c-0.567,0-0.864-0.297-0.864-0.873
			c0-0.62,0.288-0.908,0.847-0.908C137.522,96.016,137.756,96.286,137.756,96.898z M138.314,95.673
			c-0.549,0-0.685-0.252-1.368-0.252c-0.981,0-1.656,0.612-1.656,1.513c0,0.594,0.405,1.106,1.008,1.296
			c-0.611,0.188-0.81,0.404-0.81,0.765c0,0.405,0.315,0.648,0.846,0.648c0.145,0,0.514-0.01,0.693-0.01
			c0.441,0,0.711,0.046,0.882,0.162c0.162,0.108,0.243,0.297,0.243,0.54c0,0.559-0.396,0.783-1.089,0.783
			c-0.36,0-0.693-0.081-0.909-0.207c-0.162-0.099-0.261-0.288-0.261-0.521c0-0.145,0.063-0.307,0.126-0.405l-0.738,0.063
			c-0.063,0.181-0.09,0.315-0.09,0.478c0,0.639,0.54,1.143,1.944,1.143c1.089,0,1.781-0.44,1.781-1.413
			c0-0.387-0.144-0.701-0.495-0.944c-0.27-0.189-0.558-0.252-1.079-0.252h-0.721c-0.225,0-0.359-0.081-0.359-0.217
			c0-0.152,0.207-0.306,0.81-0.521c0.324,0,0.612-0.054,0.837-0.198c0.414-0.261,0.666-0.729,0.666-1.232
			c0-0.288-0.09-0.54-0.27-0.766c0.081,0.036,0.188,0.055,0.306,0.055c0.27,0,0.477-0.072,0.756-0.271l-0.432-0.432
			C138.72,95.62,138.548,95.673,138.314,95.673z"/>
	</g>
	<path class="st0" d="M3.733,66.308v-8.129c0-0.338-0.122-0.588-0.365-0.746c-0.116-0.084-0.333-0.164-0.65-0.238
		c-0.243-0.053-0.365-0.121-0.365-0.207c0-0.117,0.085-0.174,0.254-0.174c0.201,0,0.494,0.012,0.88,0.035
		c0.387,0.023,0.674,0.035,0.864,0.035c0.17,0,0.418-0.012,0.746-0.035c0.327-0.023,0.571-0.035,0.729-0.035
		c0.201,0,0.302,0.053,0.302,0.158c0,0.074-0.101,0.139-0.301,0.189c-0.253,0.074-0.573,0.154-0.679,0.24
		c-0.2,0.168-0.3,0.428-0.3,0.777v3.43c0,0.189,0.079,0.285,0.237,0.285h6.08c0.084,0,0.127-0.152,0.127-0.461v-3.254
		c0-0.318-0.101-0.557-0.301-0.715c-0.104-0.074-0.441-0.158-0.726-0.254c-0.2-0.063-0.301-0.137-0.301-0.223
		c0-0.117,0.09-0.174,0.271-0.174c0.19,0,0.491,0.012,0.903,0.035s0.661,0.035,0.746,0.035c0.222,0,0.446-0.012,0.674-0.035
		s0.384-0.035,0.468-0.035c0.296,0,0.444,0.084,0.444,0.254c0,0.064-0.09,0.121-0.27,0.174c-0.244,0.064-0.419,0.139-0.524,0.223
		c-0.181,0.158-0.27,0.396-0.27,0.715v8.414c0,0.34,0.126,0.594,0.38,0.764c0.116,0.074,0.345,0.158,0.683,0.254
		c0.254,0.074,0.382,0.158,0.382,0.254c0,0.127-0.059,0.189-0.175,0.189c-0.127,0-0.357-0.012-0.69-0.035s-0.6-0.035-0.801-0.035
		c-0.401,0-0.785,0.012-1.149,0.035c-0.365,0.023-0.568,0.035-0.61,0.035c-0.255,0-0.381-0.068-0.381-0.205
		c0-0.096,0.095-0.182,0.284-0.256c0.273-0.094,0.595-0.174,0.679-0.236c0.188-0.16,0.284-0.383,0.284-0.668v-3.813
		c0-0.244,0-0.346,0-0.303c-0.011-0.064-0.059-0.096-0.143-0.096H5.038c-0.126,0-0.189,0.09-0.189,0.27v3.957
		c0,0.307,0.132,0.535,0.395,0.684c0.085,0.053,0.464,0.131,0.854,0.238c0.263,0.074,0.395,0.174,0.395,0.301
		c0,0.086-0.085,0.127-0.254,0.127c-0.011,0-0.296-0.012-0.856-0.035c-0.56-0.023-1.009-0.035-1.348-0.035
		c-0.466,0-0.825,0.012-1.079,0.035s-0.349,0.035-0.285,0.035c-0.116,0-0.175-0.078-0.175-0.238c0-0.105,0.106-0.189,0.318-0.254
		c0.285-0.072,0.485-0.164,0.603-0.27C3.627,67.091,3.733,66.763,3.733,66.308z"/>
	<path class="st0" d="M17.938,59.853v2.535c0,0.236,0.021,0.373,0.062,0.408c0.04,0.037,0.192,0.055,0.456,0.055h1.469
		c0.417,0,0.721-0.096,0.912-0.287c0.117-0.109,0.208-0.285,0.271-0.521c0.054-0.191,0.117-0.289,0.19-0.289
		c0.099,0,0.149,0.086,0.149,0.26c0,0.164-0.005,0.396-0.014,0.699c-0.009,0.305-0.014,0.529-0.014,0.674
		c0,0.119,0.005,0.295,0.014,0.531s0.014,0.418,0.014,0.543c0,0.119-0.051,0.178-0.149,0.178c-0.1,0-0.173-0.104-0.218-0.313
		c-0.064-0.289-0.127-0.479-0.19-0.57c-0.136-0.207-0.368-0.313-0.694-0.313h-2.013c-0.127,0-0.205,0.047-0.231,0.137
		c-0.01,0.037-0.014,0.137-0.014,0.299v2.504c0,0.482,0.031,0.771,0.095,0.871c0.109,0.174,0.422,0.26,0.938,0.26
		c0.926,0,1.705-0.123,2.34-0.369c0.436-0.164,0.794-0.387,1.075-0.668c0.254-0.246,0.376-0.369,0.367-0.369
		c0.072,0,0.108,0.055,0.108,0.164c0,0.383-0.227,0.824-0.68,1.324c-0.199,0.219-0.403,0.355-0.612,0.41
		c-0.118,0.035-0.358,0.053-0.72,0.053c-0.281,0-0.799-0.014-1.552-0.045c-0.653-0.02-1.169-0.023-1.55-0.016
		c-0.109,0-0.386,0.01-0.83,0.031c-0.345,0.02-0.622,0.029-0.83,0.029c-0.136,0-0.203-0.045-0.203-0.135
		c0.009-0.072,0.09-0.146,0.243-0.219c0.117-0.045,0.234-0.09,0.353-0.135c0.162-0.082,0.271-0.223,0.325-0.424
		c0.036-0.145,0.054-0.398,0.054-0.762v-6.211c0-0.418-0.031-0.707-0.095-0.871c-0.1-0.291-0.313-0.459-0.637-0.504
		c-0.271-0.072-0.407-0.145-0.407-0.217c0-0.109,0.159-0.164,0.477-0.164c1.024,0,1.915,0.012,2.672,0.031
		c0.758,0.02,1.15,0.029,1.178,0.029c0.08,0,0.387-0.01,0.917-0.029c0.531-0.02,0.873-0.031,1.027-0.031
		c0.091,0,0.136,0.102,0.136,0.301c0,1.082-0.091,1.621-0.271,1.621c-0.118,0-0.187-0.121-0.204-0.367
		c-0.019-0.307-0.06-0.506-0.123-0.598c-0.145-0.199-0.508-0.32-1.088-0.365c-0.118-0.01-0.526-0.014-1.224-0.014
		c-0.664,0-1.041,0.029-1.137,0.088C17.986,59.142,17.938,59.4,17.938,59.853z"/>
	<path class="st0" d="M26.79,59.765v6.617c0,0.482,0.031,0.771,0.095,0.871c0.109,0.174,0.422,0.26,0.938,0.26
		c0.926,0,1.705-0.123,2.341-0.369c0.435-0.164,0.793-0.387,1.074-0.668c0.254-0.246,0.377-0.369,0.367-0.369
		c0.073,0,0.109,0.055,0.109,0.164c0,0.383-0.227,0.824-0.681,1.324c-0.199,0.219-0.403,0.355-0.611,0.41
		c-0.118,0.035-0.358,0.053-0.722,0.053c-0.281,0-0.798-0.014-1.55-0.045c-0.653-0.02-1.171-0.023-1.552-0.016
		c-0.109,0-0.386,0.01-0.83,0.031c-0.345,0.02-0.621,0.029-0.829,0.029c-0.137,0-0.204-0.045-0.204-0.135
		c0.009-0.072,0.09-0.146,0.244-0.219c0.117-0.045,0.234-0.09,0.352-0.135c0.163-0.082,0.271-0.223,0.325-0.424
		c0.036-0.145,0.055-0.398,0.055-0.762V59.48c0-0.271-0.19-0.475-0.569-0.605c-0.38-0.131-0.569-0.225-0.569-0.279
		c0-0.117,0.091-0.178,0.271-0.178c0.063,0,0.245,0.012,0.544,0.031c0.3,0.02,0.576,0.029,0.83,0.029
		c0.309,0,0.599-0.01,0.871-0.029c0.271-0.02,0.417-0.031,0.435-0.031c0.173,0,0.259,0.064,0.259,0.191
		c0,0.072-0.086,0.131-0.259,0.178c-0.218,0.063-0.377,0.135-0.477,0.217C26.875,59.167,26.79,59.421,26.79,59.765z"/>
	<path class="st0" d="M42.465,60.052l0.184,6.754c0.009,0.328,0.109,0.559,0.301,0.695c0.073,0.055,0.242,0.113,0.507,0.176
		c0.183,0.047,0.274,0.129,0.274,0.246c0,0.09-0.109,0.135-0.327,0.135c-0.063,0-0.24-0.01-0.53-0.029
		c-0.29-0.021-0.539-0.031-0.748-0.031c-0.146,0-0.354,0.01-0.626,0.031c-0.271,0.02-0.463,0.029-0.571,0.029
		c-0.1,0-0.149-0.041-0.149-0.121c0-0.1,0.072-0.182,0.218-0.246c0.218-0.09,0.358-0.168,0.422-0.23
		c0.145-0.137,0.213-0.35,0.204-0.641l-0.144-5.283c-0.009-0.354-0.06-0.529-0.149-0.529c-0.1,0-0.218,0.135-0.354,0.406
		l-2.814,5.742c-0.227,0.453-0.367,0.68-0.422,0.68s-0.146-0.131-0.271-0.395l-2.896-6.066c-0.046-0.1-0.1-0.15-0.163-0.15
		c-0.055,0-0.086,0.068-0.096,0.203l-0.159,4.779c-0.018,0.527,0.077,0.908,0.285,1.145c0.119,0.127,0.322,0.227,0.613,0.299
		c0.217,0.064,0.326,0.15,0.326,0.26c0,0.1-0.113,0.148-0.34,0.148c-0.037,0-0.207-0.01-0.51-0.029
		c-0.305-0.021-0.533-0.031-0.688-0.031c-0.272,0-0.526,0.01-0.762,0.031c-0.236,0.02-0.376,0.029-0.422,0.029
		c-0.091,0-0.136-0.053-0.136-0.162s0.077-0.186,0.23-0.232c0.208-0.063,0.354-0.135,0.436-0.217
		c0.172-0.172,0.271-0.463,0.299-0.871c0.072-0.945,0.145-1.893,0.217-2.848c0.072-0.916,0.108-1.67,0.108-2.26
		c0-0.936-0.113-1.625-0.339-2.07c-0.137-0.281-0.34-0.475-0.611-0.584c-0.227-0.082-0.34-0.164-0.34-0.246
		c0-0.1,0.077-0.15,0.231-0.15c0.082,0,0.204,0.012,0.367,0.031c0.164,0.02,0.291,0.029,0.382,0.029c0.081,0,0.204-0.01,0.367-0.029
		s0.286-0.031,0.368-0.031c0.081,0,0.141,0.043,0.176,0.131c0.036,0.086,0.073,0.17,0.109,0.25l3.236,6.914
		c0.128,0.273,0.228,0.408,0.3,0.408c0.036,0,0.177-0.244,0.422-0.734l3.237-6.506c0.153-0.309,0.271-0.463,0.354-0.463
		c0.045,0,0.158,0.012,0.339,0.031c0.182,0.02,0.282,0.029,0.3,0.029c0.108,0,0.229-0.01,0.36-0.029
		c0.132-0.02,0.229-0.031,0.293-0.031c0.09,0,0.136,0.055,0.136,0.164c0,0.1-0.091,0.174-0.271,0.219
		c-0.245,0.055-0.418,0.135-0.518,0.244C42.539,59.244,42.457,59.58,42.465,60.052z"/>
	<path class="st0" d="M47.438,59.533v4.887c0,1.043,0.313,1.84,0.936,2.393c0.57,0.518,1.34,0.777,2.308,0.777
		c2.088,0,3.133-1.098,3.133-3.293v-4.408c0-0.398-0.108-0.682-0.324-0.844c-0.1-0.082-0.303-0.154-0.609-0.217
		c-0.216-0.055-0.324-0.146-0.324-0.273c0-0.09,0.045-0.137,0.136-0.137c0.182,0,0.449,0.012,0.803,0.031s0.617,0.029,0.789,0.029
		c0.091,0,0.218-0.01,0.381-0.029s0.285-0.031,0.368-0.031c0.117,0,0.176,0.051,0.176,0.15c0,0.092-0.067,0.168-0.204,0.23
		c-0.19,0.092-0.322,0.188-0.395,0.287c-0.136,0.182-0.204,0.453-0.204,0.816v4.221c0,2.684-1.264,4.027-3.791,4.027
		c-1.632,0-2.787-0.422-3.466-1.266c-0.526-0.645-0.789-1.588-0.789-2.83v-4.588c0-0.227-0.096-0.391-0.287-0.49
		c-0.036-0.027-0.215-0.086-0.533-0.178c-0.192-0.045-0.288-0.125-0.288-0.244c0-0.09,0.1-0.137,0.3-0.137
		c0.117,0,0.292,0.012,0.523,0.031s0.41,0.029,0.537,0.029c0.146,0,0.363-0.01,0.653-0.029s0.503-0.031,0.64-0.031
		c0.29,0,0.436,0.047,0.436,0.137c0,0.092-0.077,0.158-0.229,0.205c-0.225,0.063-0.372,0.121-0.444,0.176
		C47.515,59.054,47.438,59.253,47.438,59.533z"/>
	<path class="st0" d="M60.327,66.875v-7.086c0-0.418-0.046-0.627-0.137-0.627h-2.222c-0.392,0-0.655,0.064-0.791,0.191
		c-0.082,0.092-0.191,0.348-0.327,0.768c-0.063,0.209-0.14,0.314-0.229,0.314s-0.135-0.055-0.135-0.164l0.149-1.322l0.04-0.326
		c0.037-0.137,0.104-0.205,0.205-0.205c0.299,0,0.856,0.012,1.673,0.031c0.815,0.02,1.546,0.029,2.19,0.029
		c1.007,0,1.945-0.01,2.816-0.029c0.87-0.02,1.26-0.031,1.169-0.031c0.154,0,0.257,0.027,0.307,0.082s0.079,0.16,0.088,0.314
		l0.068,1.09c0.01,0.199-0.041,0.299-0.149,0.299c-0.126,0-0.199-0.09-0.217-0.273c-0.027-0.246-0.073-0.41-0.136-0.494
		c-0.136-0.182-0.403-0.273-0.801-0.273h-1.941c-0.299,0-0.464,0.021-0.496,0.063c-0.031,0.041-0.047,0.242-0.047,0.605v6.949
		c0,0.326,0.094,0.563,0.283,0.709c0.09,0.063,0.266,0.127,0.526,0.189c0.189,0.047,0.284,0.119,0.284,0.219
		c0,0.109-0.041,0.162-0.123,0.162c-0.1,0-0.274-0.01-0.523-0.029c-0.25-0.021-0.442-0.031-0.578-0.031
		c-0.453,0-0.834,0.006-1.143,0.016c-0.218,0.01-0.458,0.025-0.721,0.045c-0.109,0-0.163-0.059-0.163-0.176
		c0-0.082,0.091-0.158,0.273-0.232c0.272-0.09,0.45-0.162,0.532-0.217C60.236,67.296,60.327,67.111,60.327,66.875z"/>
	<path class="st0" d="M70.987,67.402l-0.341-1.756c-0.054-0.281-0.004-0.422,0.151-0.422c0.081,0,0.14,0.039,0.177,0.121
		l0.083,0.326c0.117,0.453,0.38,0.869,0.787,1.25c0.553,0.525,1.24,0.789,2.065,0.789c0.696,0,1.284-0.182,1.765-0.545
		c0.524-0.391,0.787-0.924,0.787-1.605c0-0.715-0.475-1.246-1.425-1.592c-0.888-0.299-1.773-0.598-2.661-0.896
		c-0.95-0.473-1.426-1.211-1.426-2.217c0-0.816,0.31-1.461,0.925-1.932c0.554-0.418,1.251-0.627,2.094-0.627
		c0.48,0,0.906,0.041,1.277,0.123c0.245,0.055,0.477,0.137,0.694,0.246c0.181,0.082,0.284,0.123,0.313,0.123
		c0.036,0,0.081-0.025,0.136-0.074c0.054-0.051,0.104-0.076,0.149-0.076c0.09,0,0.146,0.064,0.163,0.191l0.204,1.85
		c0.019,0.137-0.032,0.205-0.149,0.205c-0.101,0-0.195-0.137-0.285-0.408c-0.199-0.572-0.527-1.01-0.984-1.314
		c-0.457-0.303-0.993-0.455-1.608-0.455c-0.598,0-1.101,0.137-1.507,0.408c-0.471,0.326-0.707,0.781-0.707,1.361
		c0,0.689,0.477,1.207,1.426,1.551c0.888,0.309,1.773,0.613,2.661,0.912c0.949,0.508,1.425,1.293,1.425,2.354
		c0,0.727-0.263,1.342-0.788,1.852c-0.681,0.67-1.714,1.006-3.102,1.006c-0.472,0-0.976-0.096-1.51-0.285
		C71.277,67.693,71.014,67.539,70.987,67.402z"/>
	<path class="st0" d="M78.541,63.414c0-1.432,0.463-2.645,1.388-3.633s2.096-1.484,3.51-1.484c0.753,0,1.419,0.092,1.999,0.273
		c0.374,0.117,0.742,0.285,1.104,0.504c0.3,0.182,0.485,0.273,0.558,0.273c0.036,0,0.088-0.023,0.157-0.068
		c0.067-0.045,0.124-0.068,0.169-0.068c0.073,0,0.118,0.072,0.138,0.219c0.018,0.1,0.035,0.395,0.053,0.883
		c0.009,0.127,0.023,0.299,0.042,0.518c0.008,0.182,0.013,0.309,0.013,0.381c0,0.182-0.046,0.271-0.136,0.271
		c-0.063,0-0.127-0.063-0.19-0.189c-0.046-0.082-0.087-0.168-0.122-0.26c-0.454-0.781-0.935-1.352-1.443-1.715
		c-0.581-0.418-1.288-0.627-2.122-0.627c-1.288,0-2.276,0.4-2.965,1.197c-0.645,0.754-0.967,1.787-0.967,3.102
		c0,1.279,0.336,2.363,1.007,3.252c0.743,0.99,1.731,1.482,2.965,1.482c0.952,0,1.805-0.254,2.559-0.76
		c0.607-0.408,0.979-0.816,1.115-1.225c0.036-0.117,0.1-0.178,0.191-0.178c0.107,0,0.148,0.051,0.122,0.15l-0.313,1.361
		c-0.036,0.146-0.326,0.332-0.87,0.559c-0.826,0.346-1.884,0.518-3.171,0.518c-1.406,0-2.556-0.439-3.449-1.32
		C78.988,65.951,78.541,64.812,78.541,63.414z"/>
	<path class="st0" d="M90.34,66.562v-6.973c0-0.289-0.104-0.504-0.313-0.641c-0.101-0.072-0.286-0.141-0.558-0.203
		c-0.209-0.047-0.313-0.105-0.313-0.178c0-0.1,0.073-0.15,0.218-0.15c0.173,0,0.424,0.012,0.756,0.031
		c0.33,0.02,0.577,0.029,0.741,0.029c0.145,0,0.357-0.01,0.64-0.029c0.28-0.02,0.489-0.031,0.625-0.031
		c0.172,0,0.259,0.047,0.259,0.137c0,0.064-0.087,0.119-0.258,0.164c-0.217,0.063-0.37,0.131-0.461,0.203
		c-0.171,0.146-0.257,0.369-0.257,0.668v2.941c0,0.164,0.067,0.244,0.203,0.244h4.971c0.072,0,0.108-0.131,0.108-0.395v-2.791
		c0-0.273-0.085-0.477-0.257-0.613c-0.09-0.063-0.258-0.135-0.502-0.217c-0.172-0.055-0.256-0.119-0.256-0.191
		c0-0.1,0.076-0.15,0.23-0.15c0.164,0,0.422,0.012,0.774,0.031c0.354,0.02,0.567,0.029,0.64,0.029c0.19,0,0.383-0.01,0.578-0.029
		c0.194-0.02,0.328-0.031,0.401-0.031c0.254,0,0.381,0.074,0.381,0.219c0,0.055-0.077,0.104-0.231,0.15
		c-0.209,0.055-0.359,0.117-0.449,0.189c-0.154,0.137-0.231,0.342-0.231,0.613v7.217c0,0.291,0.108,0.508,0.326,0.654
		c0.1,0.063,0.296,0.137,0.586,0.217c0.218,0.064,0.326,0.137,0.326,0.219c0,0.109-0.05,0.162-0.149,0.162
		c-0.108,0-0.306-0.01-0.591-0.029c-0.286-0.021-0.516-0.031-0.688-0.031c-0.345,0-0.674,0.01-0.985,0.031
		c-0.313,0.02-0.488,0.029-0.523,0.029c-0.219,0-0.326-0.059-0.326-0.176c0-0.082,0.08-0.154,0.244-0.219
		c0.232-0.082,0.387-0.15,0.459-0.203c0.162-0.137,0.243-0.328,0.243-0.572v-3.271c0-0.209,0-0.295,0-0.258
		c-0.01-0.055-0.05-0.082-0.122-0.082H91.58c-0.108,0-0.162,0.076-0.162,0.23v3.395c0,0.264,0.113,0.457,0.339,0.586
		c0.072,0.045,0.276,0.113,0.61,0.203c0.226,0.064,0.339,0.15,0.339,0.26c0,0.072-0.072,0.107-0.218,0.107
		c-0.009,0-0.254-0.01-0.734-0.029c-0.481-0.021-0.866-0.031-1.157-0.031c-0.397,0-0.706,0.01-0.925,0.031
		c-0.217,0.02-0.299,0.029-0.244,0.029c-0.1,0-0.149-0.066-0.149-0.203c0-0.09,0.09-0.164,0.272-0.217
		c0.244-0.064,0.416-0.143,0.517-0.232C90.249,67.234,90.34,66.953,90.34,66.562z"/>
	<path class="st0" d="M111.065,60.052l0.183,6.754c0.01,0.328,0.11,0.559,0.302,0.695c0.073,0.055,0.242,0.113,0.507,0.176
		c0.184,0.047,0.274,0.129,0.274,0.246c0,0.09-0.109,0.135-0.327,0.135c-0.063,0-0.241-0.01-0.53-0.029
		c-0.29-0.021-0.54-0.031-0.748-0.031c-0.146,0-0.354,0.01-0.626,0.031c-0.272,0.02-0.463,0.029-0.571,0.029
		c-0.1,0-0.149-0.041-0.149-0.121c0-0.1,0.071-0.182,0.217-0.246c0.219-0.09,0.359-0.168,0.422-0.23
		c0.146-0.137,0.213-0.35,0.204-0.641l-0.143-5.283c-0.009-0.354-0.06-0.529-0.15-0.529c-0.1,0-0.217,0.135-0.353,0.406
		l-2.814,5.742c-0.227,0.453-0.367,0.68-0.422,0.68s-0.146-0.131-0.272-0.395l-2.896-6.066c-0.046-0.1-0.1-0.15-0.163-0.15
		c-0.054,0-0.086,0.068-0.096,0.203l-0.158,4.779c-0.019,0.527,0.077,0.908,0.285,1.145c0.118,0.127,0.322,0.227,0.612,0.299
		c0.218,0.064,0.327,0.15,0.327,0.26c0,0.1-0.114,0.148-0.341,0.148c-0.036,0-0.206-0.01-0.51-0.029
		c-0.305-0.021-0.533-0.031-0.687-0.031c-0.272,0-0.527,0.01-0.763,0.031c-0.235,0.02-0.376,0.029-0.422,0.029
		c-0.09,0-0.136-0.053-0.136-0.162s0.077-0.186,0.23-0.232c0.209-0.063,0.354-0.135,0.436-0.217c0.172-0.172,0.271-0.463,0.3-0.871
		c0.071-0.945,0.144-1.893,0.217-2.848c0.072-0.916,0.108-1.67,0.108-2.26c0-0.936-0.113-1.625-0.34-2.07
		c-0.136-0.281-0.34-0.475-0.611-0.584c-0.227-0.082-0.34-0.164-0.34-0.246c0-0.1,0.077-0.15,0.231-0.15
		c0.082,0,0.204,0.012,0.367,0.031c0.164,0.02,0.291,0.029,0.382,0.029c0.082,0,0.204-0.01,0.368-0.029
		c0.163-0.02,0.286-0.031,0.367-0.031s0.141,0.043,0.176,0.131c0.037,0.086,0.074,0.17,0.109,0.25l3.237,6.914
		c0.127,0.273,0.227,0.408,0.3,0.408c0.036,0,0.176-0.244,0.421-0.734l3.237-6.506c0.154-0.309,0.272-0.463,0.354-0.463
		c0.046,0,0.158,0.012,0.34,0.031c0.181,0.02,0.281,0.029,0.3,0.029c0.108,0,0.229-0.01,0.36-0.029s0.229-0.031,0.292-0.031
		c0.091,0,0.136,0.055,0.136,0.164c0,0.1-0.09,0.174-0.271,0.219c-0.246,0.055-0.418,0.135-0.518,0.244
		C111.138,59.244,111.057,59.58,111.065,60.052z"/>
	<path class="st0" d="M115.515,66.562v-6.973c0-0.289-0.096-0.504-0.288-0.641c-0.101-0.072-0.277-0.141-0.533-0.203
		c-0.191-0.047-0.287-0.105-0.287-0.178c0-0.1,0.046-0.15,0.136-0.15c0.173,0,0.424,0.012,0.755,0.031
		c0.332,0.02,0.578,0.029,0.741,0.029c0.146,0,0.359-0.01,0.64-0.029c0.281-0.02,0.49-0.031,0.626-0.031
		c0.172,0,0.259,0.047,0.259,0.137c0,0.082-0.086,0.145-0.257,0.191c-0.224,0.063-0.376,0.127-0.457,0.189
		c-0.171,0.137-0.256,0.355-0.256,0.654v7.313c0,0.264,0.104,0.459,0.31,0.586c0.081,0.045,0.274,0.109,0.581,0.189
		c0.207,0.064,0.311,0.146,0.311,0.246c0,0.09-0.091,0.135-0.272,0.135c-0.082,0-0.295-0.01-0.64-0.029
		c-0.345-0.021-0.625-0.031-0.844-0.031c-0.326,0-0.623,0.01-0.891,0.031c-0.268,0.02-0.406,0.029-0.415,0.029
		c-0.19,0-0.285-0.066-0.285-0.203c0-0.09,0.091-0.164,0.272-0.217c0.247-0.064,0.421-0.143,0.521-0.232
		C115.424,67.234,115.515,66.953,115.515,66.562z"/>
	<path class="st0" d="M122.094,58.943c0.163-0.127,0.549-0.191,1.157-0.191c1.334,0,2.423,0.418,3.269,1.254
		c0.889,0.865,1.334,2.033,1.334,3.504c0,1.463-0.387,2.555-1.156,3.271c-0.654,0.609-1.527,0.914-2.615,0.914
		c-0.99,0-1.689-0.205-2.098-0.613c-0.055-0.055-0.081-0.387-0.081-0.996v-6.475C121.903,59.257,121.966,59.035,122.094,58.943z
		 M120.582,67.488c-0.1,0.109-0.258,0.195-0.473,0.258c-0.162,0.045-0.243,0.105-0.243,0.178c0,0.09,0.045,0.135,0.136,0.135
		c0.026,0,0.276-0.01,0.748-0.029c0.472-0.021,0.729-0.031,0.775-0.031c0.236,0,0.584,0.01,1.048,0.031
		c0.461,0.02,0.806,0.029,1.032,0.029c1.805,0,3.15-0.488,4.039-1.469c0.808-0.898,1.211-2.176,1.211-3.828
		c0-1.225-0.494-2.264-1.482-3.117c-0.953-0.816-2.049-1.227-3.29-1.227c-0.409,0-0.933,0.012-1.572,0.031s-1.1,0.029-1.38,0.029
		c-0.136,0-0.338-0.01-0.606-0.029c-0.267-0.02-0.473-0.031-0.618-0.031c-0.126,0-0.189,0.047-0.189,0.137
		c0,0.082,0.094,0.145,0.283,0.191c0.253,0.063,0.433,0.148,0.541,0.258c0.188,0.174,0.284,0.463,0.284,0.871v6.781
		C120.825,67.039,120.743,67.314,120.582,67.488z"/>
	<path class="st0" d="M133.566,66.671v-8.26c0-0.486-0.053-0.73-0.158-0.73h-2.732c-0.456,0-0.764,0.074-0.923,0.223
		c-0.096,0.107-0.223,0.404-0.382,0.895c-0.073,0.244-0.163,0.367-0.267,0.367c-0.105,0-0.158-0.064-0.158-0.191l0.175-1.541
		l0.048-0.381c0.041-0.16,0.121-0.24,0.237-0.24c0.349,0,0.999,0.012,1.951,0.037c0.951,0.023,1.803,0.035,2.555,0.035
		c1.173,0,2.268-0.012,3.282-0.035c1.016-0.025,1.471-0.037,1.364-0.037c0.181,0,0.299,0.033,0.357,0.096
		c0.058,0.064,0.092,0.186,0.103,0.365l0.08,1.271c0.01,0.234-0.047,0.35-0.175,0.35c-0.147,0-0.232-0.105-0.253-0.318
		c-0.031-0.289-0.085-0.48-0.158-0.576c-0.158-0.213-0.47-0.318-0.935-0.318h-2.404c-0.349,0-0.541,0.023-0.578,0.07
		c-0.036,0.047-0.056,0.283-0.056,0.707v8.104c0,0.381,0.111,0.656,0.331,0.824c0.105,0.074,0.451,0.148,0.756,0.223
		c0.22,0.053,0.331,0.139,0.331,0.254c0,0.127-0.048,0.191-0.143,0.191c-0.117,0-0.32-0.012-0.611-0.035s-0.516-0.035-0.674-0.035
		c-0.529,0-0.974,0.006-1.333,0.018c-0.254,0.012-0.533,0.029-0.84,0.053c-0.127,0-0.19-0.068-0.19-0.207
		c0-0.094,0.106-0.186,0.318-0.27c0.319-0.105,0.668-0.189,0.763-0.254C133.46,67.166,133.566,66.949,133.566,66.671z"/>
	<g>
		<path class="st0" d="M22.821,75.809v4.885c0,1.043,0.313,1.841,0.937,2.394c0.569,0.518,1.339,0.776,2.307,0.776
			c2.089,0,3.134-1.098,3.134-3.293v-4.408c0-0.398-0.108-0.681-0.324-0.844c-0.1-0.081-0.303-0.153-0.609-0.217
			c-0.216-0.055-0.324-0.146-0.324-0.272c0-0.091,0.046-0.136,0.136-0.136c0.182,0,0.449,0.01,0.803,0.029
			c0.354,0.021,0.617,0.031,0.789,0.031c0.091,0,0.218-0.01,0.381-0.031c0.163-0.02,0.286-0.029,0.368-0.029
			c0.117,0,0.176,0.05,0.176,0.149c0,0.091-0.067,0.167-0.204,0.231c-0.19,0.091-0.321,0.186-0.395,0.286
			c-0.136,0.182-0.204,0.453-0.204,0.816v4.22c0,2.686-1.264,4.028-3.792,4.028c-1.631,0-2.786-0.422-3.466-1.266
			c-0.525-0.645-0.789-1.588-0.789-2.831v-4.587c0-0.227-0.096-0.391-0.286-0.49c-0.037-0.027-0.215-0.086-0.534-0.177
			c-0.191-0.045-0.287-0.127-0.287-0.245c0-0.091,0.1-0.136,0.299-0.136c0.118,0,0.292,0.01,0.524,0.029
			c0.23,0.021,0.41,0.031,0.537,0.031c0.145,0,0.362-0.01,0.653-0.031c0.289-0.02,0.503-0.029,0.639-0.029
			c0.29,0,0.436,0.045,0.436,0.136s-0.076,0.159-0.229,0.204c-0.225,0.063-0.373,0.122-0.445,0.177
			C22.897,75.329,22.821,75.528,22.821,75.809z"/>
		<path class="st0" d="M33.697,82.401v-5.024c0-0.826-0.141-1.43-0.421-1.812c-0.181-0.227-0.446-0.386-0.799-0.477
			c-0.28-0.073-0.42-0.159-0.42-0.259c0-0.091,0.067-0.136,0.204-0.136c0.072,0,0.179,0.01,0.319,0.029
			c0.141,0.021,0.247,0.031,0.319,0.031s0.18-0.01,0.319-0.031c0.141-0.02,0.243-0.029,0.307-0.029c0.046,0,0.163,0.104,0.354,0.313
			l6.489,7.227c0.092,0.1,0.146,0.149,0.164,0.149c0.027,0,0.041-0.05,0.041-0.149v-5.688c0-0.518-0.132-0.898-0.396-1.144
			c-0.145-0.136-0.386-0.245-0.722-0.326c-0.263-0.064-0.395-0.146-0.395-0.245c0-0.091,0.05-0.136,0.149-0.136
			c0.137,0,0.341,0.01,0.612,0.029c0.272,0.021,0.48,0.031,0.626,0.031c0.163,0,0.408-0.01,0.734-0.031
			c0.326-0.02,0.54-0.029,0.64-0.029c0.091,0,0.136,0.041,0.136,0.122c0,0.091-0.067,0.163-0.202,0.218
			c-0.188,0.091-0.317,0.168-0.39,0.231c-0.135,0.146-0.201,0.362-0.201,0.652v7.877c0,0.391-0.042,0.585-0.123,0.585
			c-0.118,0-0.291-0.126-0.518-0.381l-5.856-6.581c-0.154-0.173-0.25-0.259-0.285-0.259c-0.064,0-0.096,0.104-0.096,0.313v5.568
			c0,0.354,0.104,0.604,0.313,0.749c0.109,0.082,0.299,0.146,0.57,0.19c0.209,0.027,0.313,0.087,0.313,0.177
			c0,0.118-0.05,0.178-0.149,0.178c-0.082,0-0.268-0.011-0.559-0.03c-0.29-0.021-0.563-0.031-0.815-0.031
			c-0.191,0-0.617,0.021-1.279,0.062c-0.118,0-0.177-0.05-0.177-0.149c0-0.109,0.104-0.191,0.312-0.246
			c0.262-0.081,0.45-0.194,0.568-0.34C33.593,83.354,33.697,82.955,33.697,82.401z"/>
		<path class="st0" d="M45.269,82.836v-6.972c0-0.29-0.096-0.504-0.287-0.641c-0.101-0.072-0.278-0.141-0.533-0.204
			c-0.191-0.045-0.288-0.104-0.288-0.177c0-0.1,0.046-0.149,0.136-0.149c0.173,0,0.425,0.01,0.756,0.029
			c0.331,0.021,0.578,0.031,0.741,0.031c0.145,0,0.358-0.01,0.64-0.031c0.28-0.02,0.489-0.029,0.626-0.029
			c0.172,0,0.258,0.045,0.258,0.136c0,0.082-0.085,0.146-0.256,0.19c-0.224,0.063-0.377,0.127-0.457,0.19
			c-0.171,0.137-0.257,0.354-0.257,0.654v7.313c0,0.263,0.104,0.458,0.311,0.585c0.08,0.046,0.274,0.109,0.58,0.191
			c0.207,0.063,0.311,0.145,0.311,0.244c0,0.091-0.091,0.137-0.272,0.137c-0.081,0-0.295-0.011-0.64-0.03
			c-0.344-0.021-0.625-0.031-0.843-0.031c-0.326,0-0.624,0.011-0.892,0.031c-0.268,0.02-0.405,0.03-0.414,0.03
			c-0.191,0-0.286-0.068-0.286-0.205c0-0.09,0.091-0.163,0.274-0.217c0.246-0.063,0.419-0.142,0.52-0.231
			C45.178,83.508,45.269,83.227,45.269,82.836z"/>
		<path class="st0" d="M53.69,83.689l-3.358-7.947c-0.127-0.309-0.345-0.518-0.652-0.627c-0.263-0.09-0.395-0.167-0.395-0.23
			c0-0.127,0.064-0.19,0.191-0.19c0.145,0,0.355,0.01,0.631,0.029c0.277,0.021,0.484,0.031,0.62,0.031s0.338-0.01,0.605-0.031
			c0.268-0.02,0.423-0.029,0.468-0.029c0.128,0,0.191,0.045,0.191,0.136c0,0.036-0.093,0.113-0.279,0.231
			c-0.186,0.118-0.278,0.272-0.278,0.463c0,0.163,0.04,0.34,0.122,0.53l2.381,5.607c0.108,0.263,0.217,0.525,0.326,0.789
			c0.082,0.163,0.153,0.245,0.218,0.245c0.063,0,0.145-0.127,0.244-0.382l2.367-5.838c0.164-0.408,0.228-0.717,0.191-0.926
			c0-0.235-0.146-0.388-0.436-0.455c-0.29-0.068-0.436-0.144-0.436-0.225c0-0.118,0.068-0.177,0.204-0.177
			c0.1,0,0.248,0.01,0.448,0.029c0.198,0.021,0.348,0.031,0.447,0.031c0.254,0,0.484-0.01,0.692-0.031
			c0.208-0.02,0.326-0.029,0.354-0.029c0.153,0,0.23,0.059,0.23,0.177c0,0.063-0.077,0.132-0.231,0.204
			c-0.208,0.1-0.386,0.322-0.529,0.667l-3.386,8.017c-0.063,0.172-0.134,0.347-0.212,0.523c-0.077,0.177-0.155,0.265-0.237,0.265
			c-0.091,0-0.186-0.108-0.285-0.326C53.835,84.048,53.763,83.872,53.69,83.689z"/>
		<path class="st0" d="M62.786,76.128v2.534c0,0.237,0.02,0.373,0.061,0.409c0.041,0.037,0.192,0.055,0.456,0.055h1.469
			c0.418,0,0.722-0.096,0.912-0.288c0.117-0.109,0.209-0.283,0.272-0.521c0.054-0.192,0.118-0.289,0.189-0.289
			c0.1,0,0.15,0.087,0.15,0.26c0,0.163-0.005,0.396-0.014,0.7s-0.014,0.528-0.014,0.673c0,0.118,0.005,0.295,0.014,0.531
			c0.009,0.235,0.014,0.417,0.014,0.544c0,0.118-0.051,0.177-0.15,0.177s-0.171-0.104-0.217-0.313
			c-0.063-0.29-0.128-0.479-0.19-0.57c-0.137-0.208-0.367-0.312-0.694-0.312H63.03c-0.127,0-0.205,0.045-0.231,0.136
			c-0.009,0.036-0.013,0.136-0.013,0.3v2.503c0,0.481,0.031,0.771,0.095,0.871c0.109,0.173,0.421,0.259,0.938,0.259
			c0.925,0,1.705-0.123,2.34-0.368c0.436-0.164,0.794-0.387,1.075-0.669c0.254-0.245,0.376-0.368,0.367-0.368
			c0.073,0,0.108,0.055,0.108,0.164c0,0.382-0.227,0.823-0.68,1.324c-0.199,0.219-0.403,0.354-0.612,0.409
			c-0.117,0.036-0.358,0.055-0.721,0.055c-0.281,0-0.799-0.016-1.551-0.046c-0.652-0.019-1.17-0.024-1.551-0.016
			c-0.108,0-0.386,0.011-0.83,0.031c-0.345,0.02-0.621,0.03-0.829,0.03c-0.137,0-0.204-0.046-0.204-0.137
			c0.009-0.072,0.09-0.145,0.244-0.218c0.116-0.045,0.234-0.091,0.352-0.136c0.162-0.082,0.271-0.223,0.326-0.423
			c0.035-0.145,0.054-0.399,0.054-0.763v-6.21c0-0.418-0.032-0.708-0.095-0.871c-0.1-0.291-0.313-0.459-0.638-0.505
			c-0.271-0.072-0.406-0.145-0.406-0.217c0-0.108,0.158-0.162,0.476-0.162c1.024,0,1.916,0.01,2.673,0.029
			c0.757,0.021,1.149,0.031,1.177,0.031c0.081,0,0.388-0.01,0.918-0.031c0.531-0.02,0.873-0.029,1.027-0.029
			c0.091,0,0.136,0.1,0.136,0.299c0,1.082-0.091,1.622-0.271,1.622c-0.118,0-0.187-0.122-0.204-0.367
			c-0.019-0.308-0.059-0.506-0.123-0.598c-0.145-0.199-0.508-0.321-1.088-0.366c-0.118-0.009-0.527-0.014-1.225-0.014
			c-0.663,0-1.041,0.03-1.137,0.089C62.833,75.417,62.786,75.675,62.786,76.128z"/>
		<path class="st0" d="M72.066,75.204c0.081-0.036,0.272-0.055,0.571-0.055c0.743,0,1.341,0.163,1.794,0.491
			c0.534,0.382,0.802,0.959,0.802,1.732c0,0.736-0.24,1.268-0.72,1.595c-0.326,0.228-0.717,0.342-1.169,0.342
			c-0.671,0-0.997,0-0.979,0c-0.336-0.019-0.503-0.082-0.503-0.191v-3.465C71.863,75.417,71.931,75.267,72.066,75.204z
			 M75.763,78.465c0.325-0.427,0.488-0.898,0.488-1.416c0-1.098-0.508-1.82-1.522-2.165c-0.391-0.127-0.957-0.19-1.7-0.19
			c-0.227,0-0.594,0.01-1.102,0.029c-0.509,0.021-0.898,0.031-1.171,0.031s-0.475-0.01-0.605-0.031
			c-0.132-0.02-0.221-0.029-0.267-0.029c-0.181,0-0.271,0.054-0.271,0.163s0.1,0.186,0.299,0.231
			c0.281,0.055,0.473,0.118,0.571,0.19c0.2,0.146,0.301,0.408,0.301,0.79V83c0,0.3-0.086,0.531-0.258,0.694
			c-0.082,0.082-0.242,0.168-0.478,0.26c-0.172,0.072-0.259,0.149-0.259,0.231c0,0.1,0.046,0.149,0.136,0.149
			c0.173,0,0.432-0.011,0.777-0.03c0.346-0.021,0.604-0.031,0.777-0.031c0.462,0,0.851,0.011,1.163,0.031
			c0.313,0.02,0.447,0.03,0.401,0.03c0.154,0,0.231-0.037,0.231-0.109c0-0.117-0.123-0.203-0.366-0.258
			c-0.345-0.082-0.57-0.154-0.68-0.218c-0.245-0.154-0.366-0.399-0.366-0.735v-2.869c0-0.136,0.004-0.218,0.014-0.244
			c0.036-0.092,0.149-0.137,0.34-0.137c0.743,0,1.169,0.022,1.277,0.068c0.109,0.045,0.286,0.263,0.53,0.652l1.51,2.381
			c0.3,0.471,0.576,0.815,0.83,1.033c0.354,0.291,0.757,0.436,1.211,0.436c0.589,0,0.882-0.055,0.882-0.164
			c0-0.072-0.068-0.122-0.203-0.149c-0.227-0.055-0.417-0.132-0.57-0.231c-0.301-0.19-0.59-0.504-0.871-0.939l-2.272-3.445
			C75.028,79.205,75.436,78.892,75.763,78.465z"/>
		<path class="st0" d="M79.838,83.676l-0.34-1.756c-0.055-0.281-0.005-0.422,0.15-0.422c0.082,0,0.141,0.041,0.177,0.122
			l0.083,0.326c0.117,0.453,0.38,0.87,0.787,1.25c0.553,0.525,1.241,0.788,2.064,0.788c0.697,0,1.285-0.181,1.766-0.544
			c0.524-0.39,0.788-0.925,0.788-1.604c0-0.717-0.476-1.247-1.426-1.592c-0.887-0.3-1.774-0.599-2.661-0.898
			c-0.95-0.472-1.425-1.21-1.425-2.217c0-0.815,0.308-1.46,0.925-1.932c0.552-0.417,1.25-0.626,2.093-0.626
			c0.479,0,0.906,0.041,1.278,0.123c0.244,0.055,0.476,0.137,0.692,0.245c0.182,0.083,0.286,0.124,0.313,0.124
			c0.036,0,0.081-0.024,0.136-0.075c0.054-0.05,0.104-0.075,0.149-0.075c0.09,0,0.145,0.064,0.163,0.191l0.204,1.85
			c0.018,0.136-0.032,0.204-0.149,0.204c-0.1,0-0.194-0.136-0.284-0.408c-0.2-0.571-0.528-1.009-0.985-1.313
			s-0.994-0.456-1.608-0.456c-0.598,0-1.1,0.136-1.508,0.408c-0.47,0.326-0.705,0.78-0.705,1.36c0,0.689,0.475,1.207,1.425,1.552
			c0.887,0.309,1.773,0.612,2.661,0.912c0.95,0.508,1.425,1.292,1.425,2.354c0,0.726-0.263,1.343-0.788,1.851
			c-0.681,0.672-1.714,1.007-3.102,1.007c-0.472,0-0.975-0.096-1.509-0.286C80.128,83.967,79.865,83.813,79.838,83.676z"/>
		<path class="st0" d="M89.551,82.836v-6.972c0-0.29-0.096-0.504-0.287-0.641c-0.101-0.072-0.278-0.141-0.533-0.204
			c-0.192-0.045-0.288-0.104-0.288-0.177c0-0.1,0.046-0.149,0.136-0.149c0.173,0,0.424,0.01,0.756,0.029
			c0.331,0.021,0.578,0.031,0.74,0.031c0.146,0,0.359-0.01,0.64-0.031c0.281-0.02,0.49-0.029,0.626-0.029
			c0.172,0,0.259,0.045,0.259,0.136c0,0.082-0.086,0.146-0.256,0.19c-0.225,0.063-0.377,0.127-0.458,0.19
			c-0.171,0.137-0.256,0.354-0.256,0.654v7.313c0,0.263,0.104,0.458,0.31,0.585c0.081,0.046,0.275,0.109,0.581,0.191
			c0.207,0.063,0.311,0.145,0.311,0.244c0,0.091-0.091,0.137-0.272,0.137c-0.082,0-0.295-0.011-0.64-0.03
			c-0.344-0.021-0.625-0.031-0.844-0.031c-0.326,0-0.623,0.011-0.891,0.031c-0.268,0.02-0.406,0.03-0.415,0.03
			c-0.19,0-0.285-0.068-0.285-0.205c0-0.09,0.091-0.163,0.273-0.217c0.246-0.063,0.42-0.142,0.52-0.231
			C89.46,83.508,89.551,83.227,89.551,82.836z"/>
		<path class="st0" d="M97.301,83.149v-7.085c0-0.418-0.046-0.627-0.137-0.627h-2.223c-0.391,0-0.653,0.064-0.789,0.192
			c-0.083,0.091-0.191,0.347-0.327,0.766c-0.064,0.21-0.14,0.315-0.23,0.315c-0.09,0-0.135-0.055-0.135-0.164l0.149-1.321
			l0.041-0.327c0.036-0.137,0.104-0.204,0.205-0.204c0.299,0,0.855,0.01,1.672,0.029c0.816,0.021,1.545,0.031,2.189,0.031
			c1.007,0,1.945-0.01,2.816-0.031c0.87-0.02,1.261-0.029,1.17-0.029c0.154,0,0.257,0.026,0.306,0.081
			c0.051,0.055,0.08,0.159,0.088,0.313l0.068,1.091c0.01,0.2-0.04,0.3-0.148,0.3c-0.127,0-0.199-0.091-0.217-0.274
			c-0.028-0.247-0.073-0.411-0.137-0.493c-0.136-0.183-0.402-0.274-0.801-0.274h-1.941c-0.299,0-0.464,0.021-0.495,0.062
			c-0.032,0.041-0.048,0.243-0.048,0.606v6.948c0,0.327,0.095,0.563,0.284,0.709c0.09,0.063,0.265,0.127,0.527,0.19
			c0.188,0.046,0.282,0.118,0.282,0.218c0,0.109-0.041,0.164-0.123,0.164c-0.1,0-0.273-0.011-0.523-0.03
			c-0.25-0.021-0.442-0.031-0.578-0.031c-0.453,0-0.834,0.006-1.142,0.016c-0.219,0.01-0.459,0.025-0.721,0.046
			c-0.109,0-0.164-0.06-0.164-0.178c0-0.081,0.092-0.158,0.273-0.231c0.273-0.091,0.451-0.163,0.533-0.218
			C97.211,83.572,97.301,83.385,97.301,83.149z"/>
		<path class="st0" d="M116.002,83.149v-7.085c0-0.418-0.046-0.627-0.137-0.627h-2.223c-0.391,0-0.655,0.064-0.791,0.192
			c-0.082,0.091-0.191,0.347-0.327,0.766c-0.063,0.21-0.139,0.315-0.229,0.315c-0.09,0-0.135-0.055-0.135-0.164l0.149-1.321
			l0.04-0.327c0.037-0.137,0.104-0.204,0.204-0.204c0.3,0,0.857,0.01,1.675,0.029c0.815,0.021,1.546,0.031,2.189,0.031
			c1.007,0,1.945-0.01,2.815-0.031c0.871-0.02,1.261-0.029,1.17-0.029c0.155,0,0.257,0.026,0.307,0.081s0.079,0.159,0.089,0.313
			l0.067,1.091c0.009,0.2-0.04,0.3-0.148,0.3c-0.127,0-0.199-0.091-0.218-0.274c-0.027-0.247-0.072-0.411-0.135-0.493
			c-0.137-0.183-0.404-0.274-0.802-0.274h-1.941c-0.299,0-0.464,0.021-0.495,0.062c-0.032,0.041-0.047,0.243-0.047,0.606v6.948
			c0,0.327,0.094,0.563,0.282,0.709c0.09,0.063,0.266,0.127,0.526,0.19c0.189,0.046,0.284,0.118,0.284,0.218
			c0,0.109-0.041,0.164-0.122,0.164c-0.1,0-0.275-0.011-0.524-0.03c-0.249-0.021-0.441-0.031-0.578-0.031
			c-0.453,0-0.834,0.006-1.143,0.016c-0.218,0.01-0.458,0.025-0.721,0.046c-0.109,0-0.163-0.06-0.163-0.178
			c0-0.081,0.091-0.158,0.273-0.231c0.272-0.091,0.45-0.163,0.533-0.218C115.91,83.572,116.002,83.385,116.002,83.149z"/>
		<g>
			<path class="st0" d="M111.868,83.981c-0.354-0.063-0.604-0.209-0.749-0.436c-0.127-0.2-0.253-0.454-0.38-0.763
				c-0.101-0.263-0.2-0.526-0.3-0.789l-2.832-7.01c-0.136-0.335-0.23-0.503-0.286-0.503c-0.081,0-0.172,0.108-0.271,0.327
				c-0.255,0.535-0.504,1.07-0.749,1.605l-3.253,6.94c-0.137,0.291-0.346,0.49-0.626,0.6c-0.245,0.091-0.367,0.168-0.367,0.231
				c0,0.1,0.041,0.149,0.122,0.149c0.117,0,0.297-0.011,0.537-0.03c0.24-0.021,0.425-0.031,0.552-0.031s0.316,0.011,0.57,0.031
				c0.254,0.02,0.444,0.03,0.572,0.03c0.145,0,0.227-0.005,0.244-0.014c0.082-0.019,0.123-0.082,0.123-0.191
				c0-0.091-0.082-0.149-0.245-0.177c-0.235-0.046-0.395-0.096-0.477-0.15c-0.163-0.109-0.245-0.301-0.245-0.573
				c0-0.182,0.032-0.342,0.097-0.479l0.87-1.91c0.091-0.191,0.304-0.287,0.64-0.287h2.992c0.263,0,0.462,0.174,0.6,0.52l0.435,1.119
				c0.281,0.719,0.422,1.15,0.422,1.297c0,0.19-0.137,0.334-0.408,0.43c-0.272,0.095-0.408,0.188-0.408,0.279s0.1,0.137,0.3,0.137
				c0.127,0,0.313-0.011,0.559-0.03c0.245-0.021,0.428-0.031,0.545-0.031c0.191,0,0.473,0.011,0.846,0.031
				c0.372,0.02,0.649,0.03,0.831,0.03c0.127,0,0.19-0.041,0.19-0.123C112.317,84.112,112.168,84.035,111.868,83.981z
				 M108.203,79.961h-2.693c-0.146,0-0.218-0.041-0.218-0.122c0-0.027,0.014-0.067,0.041-0.122l1.537-3.307
				c0.036-0.082,0.072-0.123,0.109-0.123c0.036,0,0.072,0.041,0.107,0.123l1.334,3.279c0.027,0.072,0.041,0.122,0.041,0.149
				C108.462,79.92,108.375,79.961,108.203,79.961z"/>
			<circle class="st0" cx="105.86" cy="74.566" r="0.689"/>
			<circle class="st0" cx="108.806" cy="74.566" r="0.689"/>
		</g>
	</g>
	<rect x="2.365" y="89.125" class="st0" width="136.718" height="0.25"/>
	<g>
		<path class="st1" d="M0.201,3.493c9.518-1.079,22.806-0.465,37.242,2.081c14.44,2.545,27.136,6.513,35.71,10.783
			c-5.81-5.175-19.201-10.403-35.275-13.238C21.802,0.285,7.429,0.617,0.201,3.493z"/>
		<path class="st1" d="M0.201,31.869c3.463-4.396,9.183-9.646,16.183-14.562c7-4.917,13.878-8.518,19.188-10.281
			c-4.552,0.239-12.241,3.6-20.034,9.075C7.742,21.576,1.972,27.67,0.201,31.869z"/>
		<path class="st1" d="M108.538,34.973c2.771-4.986,7.562-11.288,13.829-17.33c6.268-6.042,12.754-10.612,17.84-13.196
			c-4.572,0.92-11.803,5.481-18.781,12.207C114.448,23.379,109.626,30.437,108.538,34.973z"/>
		<path class="st1" d="M73.782,43.989c2.203-5.44,6.396-12.455,11.936-19.565c5.544-7.109,11.324-12.886,16.063-16.351
			c-4.409,1.721-11.054,7.529-17.223,15.444C78.388,31.432,74.376,39.294,73.782,43.989z"/>
		<path class="st1" d="M37.927,35.505c2.837-3.789,7.742-8.8,13.611-12.957c5.868-4.157,11.526-6.628,16.04-8.049
			c-3.911,0.094-10.675,2.366-17.206,6.995C43.837,26.122,39.312,31.846,37.927,35.505z"/>
		<path class="st1" d="M38.107,42.207c-1.602-4.446-2.604-10.834-2.604-17.931c0-7.1,1.003-13.486,2.604-17.932
			c-2.41,3.203-4.074,10.029-4.074,17.928C34.033,32.176,35.697,39.003,38.107,42.207z"/>
		<path class="st1" d="M107.276,35.184c-1.601-4.362-2.605-10.628-2.605-17.594c0-6.961,1.005-13.229,2.605-17.59
			c-2.41,3.142-4.075,9.838-4.075,17.59C103.201,25.344,104.866,32.042,107.276,35.184z"/>
		<path class="st1" d="M73.129,46.345c-1.602-4.283-2.606-10.434-2.606-17.274c0-6.838,1.005-13.275,2.606-17.558
			c-2.411,3.086-4.076,9.944-4.076,17.558C69.053,36.684,70.718,43.259,73.129,46.345z"/>
		<path class="st1" d="M0,35.963c10.179-0.612,24.465,0.401,40.055,3.149c15.592,2.749,29.363,6.685,38.717,10.739
			c-6.417-4.752-20.98-9.819-38.339-12.882C23.074,33.91,7.656,33.691,0,35.963z"/>
		<path class="st1" d="M69.94,16.507c8.431-4.245,20.92-8.175,35.127-10.68c14.209-2.506,27.291-3.084,36.665-1.979
			c-7.126-2.894-21.277-3.266-37.098-0.475C88.816,6.162,75.644,11.35,69.94,16.507z"/>
		<path class="st1" d="M71.382,48.726c8.27-4.034,20.502-7.808,34.402-10.259c13.903-2.45,26.688-3.09,35.837-2.125
			c-6.939-2.658-20.762-2.898-36.24-0.167C89.904,38.903,76.995,43.858,71.382,48.726z"/>
	</g>
</g>
</svg>
